<svg width="32" height="33" viewBox="0 0 32 33" fill="none" xmlns="http://www.w3.org/2000/svg">
<rect width="32" height="32" transform="translate(0 0.403076)" fill="#242A31"/>
<rect width="32" height="32" transform="translate(0 0.403076)" fill="black" fill-opacity="0.2"/>
<rect width="32" height="32" transform="translate(0 0.403076)" fill="black" fill-opacity="0.2"/>
<g clip-path="url(#clip0_4160_1814)">
<path d="M20.3798 4.40308H9C7.35 4.40308 6 5.75308 6 7.40308V28.4031H26.0002V10.0632L20.3798 4.40308ZM18 7.40308V12.4032H23.0002V16.4031H9V7.40308H18ZM9 19.4031H10.9702C12.0802 19.4031 12.9802 20.2932 12.9802 21.3831C12.9802 22.4729 12.0802 23.3631 10.9702 23.3631H10.2502V25.3932H9V19.3932V19.4031ZM18 23.4231C18 24.5129 17.1098 25.4031 15.9998 25.4031H13.9997V19.4031H15.9998C17.1098 19.4031 18 20.2932 18 21.3831V23.4231ZM23.0002 20.6532H20.25V22.1232H21.9998V23.3734H20.25V25.4035H18.9998V19.4035H22.9997V20.6537L23.0002 20.6532ZM16.7498 21.4032V23.4034C16.7498 23.8534 16.3898 24.1534 15.9998 24.1534H15.2498V20.6532H15.9998C16.3898 20.6532 16.7498 20.9532 16.7498 21.4032ZM10.26 22.1232V20.6532H10.9702C11.3803 20.6532 11.73 20.9931 11.73 21.3831C11.73 21.7731 11.3798 22.1129 10.9702 22.1129H10.26V22.1228V22.1232Z" fill="white"/>
</g>
<defs>
<clipPath id="clip0_4160_1814">
<rect width="24" height="24" fill="white" transform="translate(4 4.40308)"/>
</clipPath>
</defs>
</svg>
