<svg role="none" width="32" height="32" viewBox="0 0 32 32" fill="none" xmlns="http://www.w3.org/2000/svg">
<path d="M16 4C9.38292 4 4 9.38338 4 16C4 22.6171 9.38338 28 16 28C22.6166 28 28 22.6171 28 16C28 9.38292 22.6171 4 16 4ZM16.9526 23.2217H15.0682V12.8551H16.9526V23.2217ZM15.9677 11.0985C15.304 11.0985 14.8323 10.5843 14.8323 9.94185C14.8323 9.27815 15.3252 8.764 16.0102 8.764C16.7172 8.764 17.1677 9.27815 17.1677 9.94185C17.188 10.5843 16.7172 11.0985 15.9677 11.0985Z" fill="#233F55"/>
</svg>
