<svg role="none" width="32" height="32" viewBox="0 0 32 32" fill="none" xmlns="http://www.w3.org/2000/svg">
<g id="24/ Calendar">
<path id="Vector" d="M12.0814 15.8175H13.7412V23.7819H11.8059V17.4688H11.7812L10.1461 18.1954L9.81765 16.7944L12.0849 15.814L12.0814 15.8175ZM16.563 22.659L17.6684 21.7274C19.5367 20.1734 20.4478 19.28 20.4725 18.3483C20.4725 17.6948 20.0523 17.1803 19.0634 17.1803C18.3288 17.1803 17.6826 17.5209 17.2341 17.8408L16.669 16.5093C17.3152 16.0574 18.3147 15.6889 19.4766 15.6889C21.4119 15.6889 22.4785 16.7422 22.4785 18.1884C22.4785 19.5199 21.4367 20.5871 20.2006 21.6196L19.4095 22.2314V22.2523H22.6374V23.7854H16.5665V22.659H16.563ZM5.31836 25.819H26.7023V12.4941H5.31836V25.819Z" fill="#233F55"/>
<path id="Vector_2" d="M23.5347 7.17879C24.1951 7.17879 24.732 6.60519 24.732 5.89949V4.46722H22.334V5.89949C22.334 6.60867 22.8708 7.17879 23.5312 7.17879H23.5347Z" fill="#233F55"/>
<path id="Vector_3" d="M8.48242 7.17879C9.14284 7.17879 9.67961 6.60519 9.67961 5.89949V4.46722H7.28516V5.89949C7.28516 6.60867 7.82201 7.17879 8.48242 7.17879Z" fill="#233F55"/>
<path id="Vector_4" d="M28.0481 26.4865C28.0481 26.855 27.748 27.147 27.3772 27.147H4.64405C4.27323 27.147 3.96954 26.855 3.96954 26.4865V11.8336C3.96954 11.4651 4.2697 11.1731 4.64405 11.1731H27.3772C27.748 11.1731 28.0481 11.4651 28.0481 11.8336V26.4865ZM5.94022 4.46714H7.2857V2.60728C7.2857 1.90158 7.82255 1.32798 8.48297 1.32798C9.14338 1.32798 9.68015 1.90158 9.68015 2.60728V4.46714H11.0257V5.8994C11.0257 7.33862 9.88502 8.50668 8.47943 8.50668C7.07385 8.50668 5.93315 7.33862 5.93315 5.8994V4.46714H5.94022ZM20.9884 4.46714H22.3375V2.60728C22.3375 1.90158 22.8743 1.32798 23.5347 1.32798C24.1951 1.32798 24.732 1.90158 24.732 2.60728V4.46714H26.081V5.8994C26.081 7.33862 24.9368 8.50668 23.5347 8.50668C22.1327 8.50668 20.9884 7.33862 20.9884 5.8994V4.46714ZM28.0164 4.30722H26.0775V2.60728C26.0775 1.17501 24.9332 0 23.5312 0C22.1291 0 20.9849 1.17501 20.9849 2.60728V4.30722H11.0257V2.60728C11.0257 1.17501 9.88502 0 8.47943 0C7.07385 0 5.93315 1.17501 5.93315 2.60728V4.30722H3.99075C1.79055 4.30722 0 5.97241 0 8.02694V28.2803C0 30.3348 1.79055 32 3.99075 32H28.0093C30.2095 32 32 30.3313 32 28.2803V8.02694C32 5.97241 30.2095 4.30722 28.0093 4.30722H28.0164Z" fill="#233F55"/>
</g>
</svg>
