<svg role="none" width="32" height="32" viewBox="0 0 32 32" fill="none" xmlns="http://www.w3.org/2000/svg">
<path d="M30.9561 26.6588L23.9833 19.686C23.698 19.4018 23.3117 19.2422 22.909 19.2422C22.5063 19.2422 22.1201 19.4018 21.8348 19.686L20.1564 18.0079C23.278 13.8406 22.9535 7.90552 19.1676 4.11928C15.0082 -0.0397601 8.27064 -0.0397601 4.11928 4.11928C-0.0397601 8.27864 -0.0397601 15.0162 4.11928 19.1673C7.90584 22.9535 13.8406 23.2783 18.0079 20.1564L19.6863 21.8348C19.4021 22.1201 19.2425 22.5063 19.2425 22.909C19.2425 23.3117 19.4021 23.698 19.6863 23.9833L26.6591 30.9561C26.9444 31.2403 27.3307 31.3999 27.7334 31.3999C28.1361 31.3999 28.5223 31.2403 28.8076 30.9561L30.9561 28.8076C31.2404 28.5223 31.4001 28.136 31.4001 27.7332C31.4001 27.3304 31.2404 26.9441 30.9561 26.6588ZM6.26808 17.0108C4.83288 15.5756 4.03832 13.6623 4.03832 11.6351C4.03832 9.60792 4.83288 7.69496 6.26808 6.25976C7.70328 4.82456 9.61656 4.03032 11.6431 4.03032C13.6697 4.03032 15.5833 4.82488 17.0185 6.25976C18.4537 7.69464 19.2482 9.60824 19.2482 11.6351C19.2482 13.2649 18.7212 14.7974 17.7807 16.0863L16.1023 17.7647C14.813 18.7055 13.2726 19.2322 11.6511 19.2322C9.60792 19.2402 7.70296 18.454 6.26808 17.0108Z" fill="#233F55"/>
</svg>
