<svg width="24" height="23" viewBox="0 0 24 23" fill="none" xmlns="http://www.w3.org/2000/svg">
<path fill-rule="evenodd" clip-rule="evenodd" d="M4.5068 9.85669H8.66771L12.0555 15.7172L15.3313 9.85669H19.482C19.6957 9.85669 19.6957 9.95968 19.8178 10.073L23.9685 22.2368C24.0804 22.3398 23.8668 22.4531 23.7549 22.4531H0.254315C0.142408 22.4531 -0.081408 22.3398 0.0304994 22.2368L4.19142 10.073C4.29316 9.95968 4.40506 9.85669 4.51697 9.85669H4.5068ZM12.0555 14.7181L8.00645 7.51867C7.56899 6.86979 7.35534 6.08702 7.35534 5.21155C7.35534 2.66755 9.43072 0.453125 12.0555 0.453125C14.6802 0.453125 16.6335 2.66755 16.6335 5.21155C16.6335 6.09732 16.4198 6.97279 15.9824 7.64227L12.0555 14.7181ZM12.0555 2.66755C13.5815 2.66755 14.6802 3.8829 14.6802 5.32485C14.6802 6.7668 13.5815 7.98216 12.0555 7.98216C10.6312 7.98216 9.42055 6.7668 9.42055 5.32485C9.42055 3.8829 10.621 2.66755 12.0555 2.66755Z" fill="#233F55"/>
</svg>
