<svg width="24" height="25" viewBox="0 0 24 25" fill="none" xmlns="http://www.w3.org/2000/svg">
<path fill-rule="evenodd" clip-rule="evenodd" d="M0.801615 5.95276C1.42189 6.28051 10.4398 11.2762 10.7547 11.4947C11.165 11.7033 11.5753 11.8225 11.9857 11.8225C12.396 11.8225 12.8064 11.7033 13.2072 11.4947C13.5221 11.2762 22.54 6.27058 23.1602 5.95276C23.8759 5.62502 24.3817 4.45312 23.2556 4.45312H0.706211C-0.419831 4.45312 0.181338 5.62502 0.801615 5.95276ZM23.4752 8.7337C22.7595 9.16076 13.6175 14.0571 13.2167 14.2756C12.711 14.4841 12.396 14.6033 11.9952 14.6033C11.5944 14.6033 11.2795 14.4841 10.7642 14.2756C10.3539 14.0571 1.31693 9.16076 0.505793 8.7337C2.79845e-05 8.40595 0 8.73365 0 9.0614V19.1818C0 19.7082 0.820689 20.4531 1.32645 20.4531H22.6735C23.1793 20.4531 24 19.7082 24 19.1818V9.0614C24 8.73365 24 8.41588 23.4942 8.7337H23.4752Z" fill="#233F55"/>
</svg>
