<svg role="none" width="24" height="24" viewBox="0 0 24 24" fill="none" xmlns="http://www.w3.org/2000/svg">
<path d="M14.0713 14.0778C14.0556 14.096 14.0373 14.1091 14.0191 14.1247V9.18967H11.8677V15.5481C11.3931 15.7436 10.8951 15.8766 10.3839 15.9574V4.11382H8.23257V15.9574C7.71624 15.874 7.21295 15.741 6.73313 15.5429V6.85116H4.58176V14.1117C4.56873 14.0986 4.55568 14.0882 4.54264 14.0752C1.91667 11.4499 1.91667 7.17705 4.54264 4.55181C5.81521 3.27699 7.50762 2.58351 9.30695 2.58351C11.1063 2.58351 12.7961 3.27699 14.0686 4.55181C15.3412 5.82402 16.0427 7.51597 16.0427 9.3148C16.0427 11.1136 15.3412 12.8056 14.0686 14.0752L14.0713 14.0778ZM5.58051 14.9277C5.58051 14.9277 5.56748 14.9172 5.55966 14.9146L5.58051 14.9277ZM23.5138 20.7256L17.3231 14.5366C17.2657 14.4793 17.2031 14.4271 17.1301 14.375C19.5083 10.7095 18.9972 5.83185 15.8967 2.72952C14.1365 0.972402 11.7999 0 9.31217 0C6.82441 0 4.48267 0.972402 2.72246 2.72952C-0.907486 6.35846 -0.907486 12.2659 2.72246 15.9001C4.48267 17.6572 6.81919 18.627 9.30695 18.627C11.1167 18.627 12.8639 18.1108 14.3711 17.1332C14.4233 17.2062 14.478 17.2713 14.5354 17.3287L20.7236 23.5177C21.0339 23.8279 21.4459 24 21.884 24C22.3221 24 22.6924 23.841 22.9818 23.5516L23.5503 22.9833C24.1631 22.3706 24.1475 21.3591 23.5164 20.7256H23.5138Z" fill="#233F55"/>
</svg>
