<svg width="24" height="24" viewBox="0 0 24 24" fill="none" xmlns="http://www.w3.org/2000/svg">
<path d="M10.8243 5.84424C8.96144 6.16487 7.92993 7.17888 7.92993 7.76018C7.92993 8.34148 8.96144 9.35549 10.8243 9.6735L11.1257 9.72825V5.79472L10.8243 5.84424ZM12.8743 18.1975L13.1757 18.1479C15.0386 17.8273 16.0701 16.8133 16.0701 16.2346C16.0701 15.6559 15.0386 14.6393 13.1757 14.3213L12.8743 14.2717V18.2001V18.1975ZM11.1231 23.9948V22.6601L10.8893 22.6367C6.66205 22.2353 3.58054 19.6077 3.5 16.3623H7.94293C8.07804 16.9514 9.08875 17.8534 10.8217 18.1479L11.1231 18.1975V14.1883L10.8893 14.1675C6.60748 13.7582 3.5 11.0629 3.5 7.76018C3.5 4.45747 6.60748 1.76214 10.8893 1.35549L11.1231 1.33464V0H12.8743V1.33464L13.1081 1.35549C17.3276 1.75693 20.4169 4.38971 20.4974 7.63506H16.0545C15.9194 7.04073 14.9086 6.14663 13.1757 5.84685L12.8743 5.79733V9.81166L13.1081 9.83252C17.3899 10.2366 20.5 12.9319 20.5 16.2372C20.5 19.5425 17.3925 22.2352 13.1081 22.6419L12.8743 22.6654V24H11.1231V23.9948Z" fill="#233F55"/>
</svg>
