<svg role="none" width="25" height="24" viewBox="0 0 25 24" fill="none" xmlns="http://www.w3.org/2000/svg">
<path d="M22.4833 18.0397L19.2085 21.3145C19.1095 21.4136 18.9765 21.4657 18.8435 21.4657C18.721 21.4657 18.5958 21.4214 18.4994 21.3301L16.6769 19.6954C16.4657 19.505 16.4474 19.1817 16.6377 18.9653C16.8281 18.7541 17.154 18.7359 17.3678 18.9262L18.8279 20.2351L21.7559 17.3097C21.9592 17.109 22.2851 17.109 22.4859 17.3097C22.6867 17.5105 22.6867 17.839 22.4859 18.0397H22.4833ZM19.5683 14.6242C16.8776 14.6242 14.6875 16.7231 14.6875 19.3095C14.6875 21.8959 16.8776 24 19.5683 24C22.259 24 24.4492 21.8959 24.4492 19.3095C24.4492 16.7231 22.259 14.6242 19.5683 14.6242Z" fill="#233F55"/>
<path d="M13.2347 17.9355H4.01008C3.72589 17.9355 3.49384 17.706 3.49384 17.4192C3.49384 17.1324 3.72328 16.9056 4.01008 16.9056H13.2347C13.5189 16.9056 13.7509 17.135 13.7509 17.4192C13.7509 17.7034 13.5189 17.9355 13.2347 17.9355ZM4.01008 13.5057H13.2347C13.5189 13.5057 13.7509 13.7351 13.7509 14.0193C13.7509 14.3035 13.5189 14.5356 13.2347 14.5356H4.01008C3.72589 14.5356 3.49384 14.3061 3.49384 14.0193C3.49384 13.7325 3.72328 13.5057 4.01008 13.5057ZM4.01008 10.1058H13.2347C13.5189 10.1058 13.7509 10.3352 13.7509 10.622C13.7509 10.9088 13.5189 11.1409 13.2347 11.1409H4.01008C3.72589 11.1409 3.49384 10.9062 3.49384 10.622C3.49384 10.3378 3.72328 10.1058 4.01008 10.1058ZM4.01008 6.70591H13.2347C13.5189 6.70591 13.7509 6.93534 13.7509 7.22214C13.7509 7.50894 13.5189 7.74099 13.2347 7.74099H4.01008C3.72589 7.74099 3.49384 7.50634 3.49384 7.22214C3.49384 6.93795 3.72328 6.70591 4.01008 6.70591ZM4.01008 3.30604H13.2347C13.5189 3.30604 13.7509 3.53548 13.7509 3.82489C13.7509 4.11429 13.5189 4.33851 13.2347 4.33851H4.01008C3.72589 4.33851 3.49384 4.10908 3.49384 3.82489C3.49384 3.54069 3.72328 3.30604 4.01008 3.30604ZM13.6544 19.3095C13.6544 17.1246 14.9294 15.2239 16.7936 14.2644V0H0.451172V21.2441H14.0116C13.7848 20.6392 13.6544 19.99 13.6544 19.3095Z" fill="#233F55"/>
</svg>
