<svg role="none" width="25" height="20" viewBox="0 0 25 20" fill="none" xmlns="http://www.w3.org/2000/svg">
<path d="M23.7315 19.5H1.17086C0.771905 19.5 0.451172 19.1723 0.451172 18.7706C0.451172 18.3689 0.771905 18.0412 1.17086 18.0412H23.7315C24.1304 18.0412 24.4512 18.3689 24.4512 18.7706C24.4512 19.1723 24.1304 19.5 23.7315 19.5Z" fill="#233F55"/>
<path d="M23.8495 9.33611L22.9734 0.609815C22.9708 0.578102 22.9525 0.543731 22.9265 0.527875C22.9004 0.50409 22.8665 0.493528 22.8352 0.504099L15.8287 1.60613C15.7817 1.61406 15.7452 1.64047 15.7322 1.68804C15.7192 1.73032 15.7322 1.77791 15.7635 1.81227L17.7218 3.71238L9.68786 16.6406C9.6644 16.6776 9.66439 16.7252 9.68525 16.7648C9.70611 16.8045 9.74784 16.8256 9.78956 16.8256H15.9304C15.9721 16.8256 16.0086 16.8045 16.0321 16.7701L21.727 7.60247L23.6514 9.47089C23.6748 9.49204 23.7035 9.50261 23.7374 9.50525C23.7896 9.51054 23.86 9.45238 23.86 9.38367C23.86 9.36517 23.8548 9.34933 23.8495 9.33611Z" fill="#233F55"/>
<path d="M11.8376 10.2425C11.8741 10.2769 11.9288 10.2875 11.9732 10.2637C12.0175 10.2426 12.0436 10.1923 12.0384 10.1421L11.4699 4.45763C11.4647 4.42328 11.449 4.39419 11.423 4.37305C11.3969 4.35455 11.363 4.34134 11.3317 4.34927L6.78672 5.0628C6.74239 5.07072 6.70328 5.10246 6.69024 5.14738C6.67459 5.19231 6.69024 5.23987 6.72153 5.27158L7.96793 6.48194L1.65504 16.6433C1.63157 16.6803 1.63156 16.7278 1.64982 16.7675C1.67068 16.8071 1.7124 16.8282 1.75412 16.8282H5.73586C5.77758 16.8282 5.8167 16.8071 5.83756 16.7727L10.625 9.06654L11.835 10.2425H11.8376Z" fill="#233F55"/>
</svg>
