<svg role="none" width="24" height="24" viewBox="0 0 24 24" fill="none" xmlns="http://www.w3.org/2000/svg">
<g filter="url(#filter0_d_4275_14590)">
<path d="M21 7C21.5523 7 22 6.55228 22 6C22 5.44772 21.5523 5 21 5L3 5C2.44772 5 2 5.44772 2 6C2 6.55228 2.44772 7 3 7L21 7Z" fill="white"/>
<path d="M21 13C21.5523 13 22 12.5523 22 12C22 11.4477 21.5523 11 21 11L3 11C2.44772 11 2 11.4477 2 12C2 12.5523 2.44772 13 3 13L21 13Z" fill="white"/>
<path d="M21 19C21.5523 19 22 18.5523 22 18C22 17.4477 21.5523 17 21 17H3C2.44772 17 2 17.4477 2 18C2 18.5523 2.44772 19 3 19H21Z" fill="white"/>
</g>
<defs>
<filter id="filter0_d_4275_14590" x="1" y="4" width="22" height="16" filterUnits="userSpaceOnUse" color-interpolation-filters="sRGB">
<feFlood flood-opacity="0" result="BackgroundImageFix"/>
<feColorMatrix in="SourceAlpha" type="matrix" values="0 0 0 0 0 0 0 0 0 0 0 0 0 0 0 0 0 0 127 0" result="hardAlpha"/>
<feOffset/>
<feGaussianBlur stdDeviation="0.5"/>
<feComposite in2="hardAlpha" operator="out"/>
<feColorMatrix type="matrix" values="0 0 0 0 0 0 0 0 0 0 0 0 0 0 0 0 0 0 1 0"/>
<feBlend mode="normal" in2="BackgroundImageFix" result="effect1_dropShadow_4275_14590"/>
<feBlend mode="normal" in="SourceGraphic" in2="effect1_dropShadow_4275_14590" result="shape"/>
</filter>
</defs>
</svg>
