<svg role="none" width="18" height="20" viewBox="0 0 18 20" fill="none" xmlns="http://www.w3.org/2000/svg">
<path d="M6.08756 10.0002C6.08756 10.6725 5.81595 11.3172 5.33249 11.7926C4.84903 12.268 4.19332 12.535 3.5096 12.535C2.82588 12.535 2.17017 12.268 1.68671 11.7926C1.20325 11.3172 0.931641 10.6725 0.931641 10.0002C0.931641 9.3279 1.20325 8.68315 1.68671 8.20777C2.17017 7.7324 2.82588 7.46533 3.5096 7.46533C4.19332 7.46533 4.84903 7.7324 5.33249 8.20777C5.81595 8.68315 6.08756 9.3279 6.08756 10.0002Z" stroke="#233F55" stroke-width="1.5"/>
<path d="M11.2438 4.42334L6.08789 7.97214M11.2438 15.5767L6.08789 12.0279" stroke="#233F55" stroke-width="1.5" strokeLinecap="round"/>
<path d="M16.4001 16.5906C16.4001 17.2629 16.1285 17.9077 15.645 18.383C15.1615 18.8584 14.5058 19.1255 13.8221 19.1255C13.1384 19.1255 12.4827 18.8584 11.9992 18.383C11.5157 17.9077 11.2441 17.2629 11.2441 16.5906C11.2441 15.9183 11.5157 15.2736 11.9992 14.7982C12.4827 14.3228 13.1384 14.0558 13.8221 14.0558C14.5058 14.0558 15.1615 14.3228 15.645 14.7982C16.1285 15.2736 16.4001 15.9183 16.4001 16.5906ZM16.4001 3.40937C16.4001 4.08166 16.1285 4.72641 15.645 5.20178C15.1615 5.67716 14.5058 5.94423 13.8221 5.94423C13.1384 5.94423 12.4827 5.67716 11.9992 5.20178C11.5157 4.72641 11.2441 4.08166 11.2441 3.40937C11.2441 2.73708 11.5157 2.09233 11.9992 1.61695C12.4827 1.14158 13.1384 0.874512 13.8221 0.874512C14.5058 0.874512 15.1615 1.14158 15.645 1.61695C16.1285 2.09233 16.4001 2.73708 16.4001 3.40937Z" stroke="#233F55" stroke-width="1.5"/>
</svg>
