<svg width="24" height="25" viewBox="0 0 24 25" fill="none" xmlns="http://www.w3.org/2000/svg">
<path d="M17.0259 15.4251C16.7743 15.6766 16.4894 15.8826 16.1924 16.0523L22.2602 22.1187C22.2814 22.0975 22.3026 22.0793 22.3269 22.0581L23.9999 20.3824L18.0321 14.4191L17.0228 15.4281L17.0259 15.4251Z" fill="#233F55"/>
<path d="M9.02711 7.42856L10.0364 6.4195L4.06861 0.453125L2.39556 2.12878C2.37435 2.14999 2.35618 2.17426 2.33496 2.19547L8.39972 8.25883C8.56945 7.96187 8.77252 7.68006 9.02711 7.42553V7.42856Z" fill="#233F55"/>
<path d="M11.5523 15.4251L9.02759 12.901C8.1062 11.9799 7.7516 10.6981 7.9577 9.49816L1.56862 3.1106C-0.765151 6.31954 -0.498425 10.8678 2.39302 13.7586L10.6946 22.0582C13.586 24.9459 18.1384 25.2217 21.3511 22.8884L14.9529 16.4948C13.7527 16.7008 12.4737 16.3463 11.5523 15.4251Z" fill="#233F55"/>
</svg>
