<svg width="20" height="21" viewBox="0 0 20 21" fill="none" xmlns="http://www.w3.org/2000/svg">
<path d="M10 0.240234C4.47734 0.240234 0 4.71758 0 10.2402C0 15.7629 4.47734 20.2402 10 20.2402C15.5227 20.2402 20 15.7629 20 10.2402C19.9941 4.71992 15.5203 0.246094 10 0.240234ZM17.4508 9.40703H14.5523C14.3633 7.23594 13.7129 5.13047 12.6449 3.23125C15.2773 4.22695 17.1324 6.61055 17.4508 9.40703ZM8.0707 11.907H11.9289C11.6008 13.6527 10.9461 15.3207 9.99961 16.8238C9.05273 15.3211 8.39844 13.6527 8.07031 11.907H8.0707ZM7.96094 9.40703C8.19414 7.36016 8.8918 5.39375 10 3.65703C11.1086 5.39336 11.8059 7.36016 12.0391 9.40703H7.96055H7.96094ZM7.35508 3.23125C6.28672 5.13047 5.63672 7.23633 5.44766 9.40703H2.54922C2.86758 6.61055 4.72266 4.22695 7.35508 3.23125ZM2.69336 11.907H5.53437C5.81484 13.7828 6.43164 15.593 7.35508 17.2496C5.00625 16.3594 3.25703 14.3551 2.69336 11.907ZM12.6449 17.2492C13.5687 15.5926 14.1859 13.7828 14.4656 11.9066H17.3066C16.743 14.3543 14.9937 16.359 12.6449 17.2492Z" fill="#333333"/>
</svg>
