<svg width="16" height="16" viewBox="0 0 16 16" fill="none" xmlns="http://www.w3.org/2000/svg">
<path d="M13.2494 15.4286H2.75036C2.58108 15.4286 2.44369 15.2864 2.44369 15.1105V9.18201L0.305909 9.17756C0.182015 9.17724 0.0703881 9.09964 0.0231613 8.98102C-0.0240656 8.86208 0.00230759 8.72565 0.0897079 8.6347L7.77572 0.664176C7.84564 0.591986 7.94562 0.559866 8.0416 0.57513C8.13268 0.590395 8.21181 0.647321 8.25781 0.72937L10.0472 2.58501V1.99254C10.0472 1.817 10.1843 1.67452 10.3539 1.67452H12.1556C12.3254 1.67452 12.4622 1.817 12.4622 1.99254V5.08942L15.9101 8.66523C15.9978 8.75618 16.0242 8.89325 15.9766 9.01251C15.9294 9.13113 15.8172 9.20809 15.6933 9.20809H15.6927L13.5558 9.20364V15.1105C13.5561 15.2864 13.419 15.4286 13.2494 15.4286Z" fill="#A7AAAD"/>
</svg>
